<?xml version="1.0" standalone="no"?><svg xmlns:xlink="http://www.w3.org/1999/xlink" xmlns="http://www.w3.org/2000/svg" viewBox="0 0 1000 562.5005318651021" preserveAspectRatio="xMaxYMax slice"><g transform="scale(0.8509841631847233)"><rect x="0" y="0" width="1175.111111111111" height="661" fill="#23042C"/><rect x="0" y="0" width="73.44444444444444" height="73.44444444444444" fill="#23042C"/><rect x="0" y="0" width="36.72" height="36.72" fill="#0f0213"/><path d="M 0 36.72 A 36.72 36.72 0 0 0 36.72 0 L 0 0" fill="#1d2544"/><rect x="36.72" y="0" width="36.72" height="36.72" fill="#130217"/><path d="M 36.72 36.72 A 36.72 36.72 0 0 0 73.44 0 L 36.72 0" fill="#210d32"/><rect x="0" y="36.72" width="36.72" height="36.72" fill="#000000"/><path d="M 0 36.72 A 36.72 36.72 0 0 1  36.72 73.44 L 0 36.72 A 36.72 36.72 0 0 0 36.72 73.44" fill="#000000"/><rect x="36.72" y="36.72" width="36.72" height="36.72" fill="#210429"/><path d="M 36.72 73.44 A 36.72 36.72 0 0 1  73.44 36.72 L 36.72 73.44 A 36.72 36.72 0 0 0 73.44 36.72" fill="#0e0212"/><rect x="73.44" y="0" width="73.44" height="73.44" fill="#17031d"/><path d="M 73.44 0 A 73.44 73.44 0 0 1  146.88 73.44 L 73.44 0 A 73.44 73.44 0 0 0 146.88 73.44" fill="#0d8188"/><rect x="146.88888888888889" y="0" width="73.44444444444444" height="73.44444444444444" fill="#23042C"/><rect x="146.89" y="0" width="36.72" height="36.72" fill="#1c2e4b"/><path d="M 146.89 0 A 36.72 36.72 0 0 0 183.60999999999999 36.72 L 183.60999999999999 0" fill="#1b0322"/><rect x="183.61" y="0" width="36.72" height="36.72" fill="#155668"/><path d="M 183.61 0 A 36.72 36.72 0 0 1 220.33 36.72 L 183.61 36.72" fill="#18455b"/><rect x="146.89" y="36.72" width="36.72" height="36.72" fill="#23072e"/><path d="M 146.89 36.72 A 36.72 36.72 0 0 1 183.60999999999999 73.44 L 146.89 73.44" fill="#184159"/><rect x="183.61" y="36.72" width="36.72" height="36.72" fill="#20173a"/><path d="M 183.61 73.44 A 36.72 36.72 0 0 1  220.33 36.72 L 220.33 73.44" fill="#116b78"/><rect x="220.33333333333331" y="0" width="73.44444444444444" height="73.44444444444444" fill="#23042C"/><rect x="220.33" y="0" width="36.72" height="36.72" fill="#020002"/><path d="M 220.33 0 A 36.72 36.72 0 0 1  257.05 36.72 L 220.33 0 A 36.72 36.72 0 0 0 257.05 36.72" fill="#08010a"/><rect x="257.06" y="0" width="36.72" height="36.72" fill="#1c2a48"/><path d="M 257.06 0 A 36.72 36.72 0 0 1  293.78 36.72 L 257.06 0 A 36.72 36.72 0 0 0 293.78 36.72" fill="#060108"/><rect x="220.33" y="36.72" width="36.72" height="36.72" fill="#220a30"/><path d="M 220.33 73.44 A 36.72 36.72 0 0 0 257.05 36.72 L 220.33 36.72" fill="#010001"/><rect x="257.06" y="36.72" width="36.72" height="36.72" fill="#165064"/><path d="M 257.06 36.72 A 36.72 36.72 0 0 1 293.78 73.44 L 257.06 73.44" fill="#0f0213"/><rect x="293.78" y="0" width="73.44" height="73.44" fill="#1b314d"/><path d="M 293.78 73.44 A 73.44 73.44 0 0 0 367.21999999999997 0 L 293.78 0" fill="#155467"/><rect x="367.22" y="0" width="73.44" height="73.44" fill="#10707c"/><path d="M 367.22 0 A 73.44 73.44 0 0 1 440.66 73.44 L 367.22 73.44" fill="#0d0211"/><rect x="440.66666666666663" y="0" width="73.44444444444444" height="73.44444444444444" fill="#23042C"/><rect x="440.67" y="0" width="36.72" height="36.72" fill="#1b324e"/><path d="M 440.67 36.72 A 36.72 36.72 0 0 1  477.39 0 L 477.39 36.72" fill="#0a010d"/><rect x="477.39" y="0" width="36.72" height="36.72" fill="#050106"/><path d="M 477.39 36.72 A 36.72 36.72 0 0 1  514.11 0 L 514.11 36.72" fill="#1a0321"/><rect x="440.67" y="36.72" width="36.72" height="36.72" fill="#174a60"/><path d="M 440.67 36.72 A 36.72 36.72 0 0 1  477.39 73.44 L 440.67 36.72 A 36.72 36.72 0 0 0 477.39 73.44" fill="#010001"/><rect x="477.39" y="36.72" width="36.72" height="36.72" fill="#210e34"/><path d="M 477.39 36.72 A 36.72 36.72 0 0 1 514.11 73.44 L 477.39 73.44" fill="#116e7a"/><rect x="514.11" y="0" width="73.44" height="73.44" fill="#120217"/><path d="M 514.11 0 A 73.44 73.44 0 0 1 587.55 73.44 L 514.11 73.44" fill="#1f0427"/><rect x="587.5555555555555" y="0" width="73.44444444444444" height="73.44444444444444" fill="#23042C"/><rect x="587.56" y="0" width="36.72" height="36.72" fill="#16031c"/><path d="M 587.56 36.72 A 36.72 36.72 0 0 0 624.28 0 L 587.56 0" fill="#210429"/><rect x="624.28" y="0" width="36.72" height="36.72" fill="#08010a"/><path d="M 624.28 36.72 A 36.72 36.72 0 0 0 661 0 L 624.28 0" fill="#210f34"/><rect x="587.56" y="36.72" width="36.72" height="36.72" fill="#23042c"/><path d="M 587.56 73.44 A 36.72 36.72 0 0 1  624.28 36.72 L 624.28 73.44" fill="#110216"/><rect x="624.28" y="36.72" width="36.72" height="36.72" fill="#1c2a48"/><path d="M 624.28 73.44 A 36.72 36.72 0 0 1  661 36.72 L 661 73.44" fill="#010002"/><rect x="661" y="0" width="73.44444444444444" height="73.44444444444444" fill="#23042C"/><rect x="661" y="0" width="36.72" height="36.72" fill="#19031f"/><path d="M 661 0 A 36.72 36.72 0 0 0 697.72 36.72 L 697.72 0" fill="#140219"/><rect x="697.72" y="0" width="36.72" height="36.72" fill="#1e1f40"/><path d="M 697.72 0 A 36.72 36.72 0 0 0 734.44 36.72 L 734.44 0" fill="#010001"/><rect x="661" y="36.72" width="36.72" height="36.72" fill="#210f34"/><path d="M 661 73.44 A 36.72 36.72 0 0 1  697.72 36.72 L 661 73.44 A 36.72 36.72 0 0 0 697.72 36.72" fill="#201438"/><rect x="697.72" y="36.72" width="36.72" height="36.72" fill="#14021a"/><path d="M 697.72 73.44 A 36.72 36.72 0 0 1  734.44 36.72 L 697.72 73.44 A 36.72 36.72 0 0 0 734.44 36.72" fill="#1a3a54"/><rect x="734.4444444444445" y="0" width="73.44444444444444" height="73.44444444444444" fill="#23042C"/><rect x="734.44" y="0" width="36.72" height="36.72" fill="#23052d"/><path d="M 734.44 0 A 36.72 36.72 0 0 0 771.1600000000001 36.72 L 771.1600000000001 0" fill="#1f1c3e"/><rect x="771.17" y="0" width="36.72" height="36.72" fill="#136171"/><path d="M 771.17 0 A 36.72 36.72 0 0 1 807.89 36.72 L 771.17 36.72" fill="#1a3651"/><rect x="734.44" y="36.72" width="36.72" height="36.72" fill="#1c0323"/><path d="M 734.44 36.72 A 36.72 36.72 0 0 0 771.1600000000001 73.44 L 771.1600000000001 36.72" fill="#1e0325"/><rect x="771.17" y="36.72" width="36.72" height="36.72" fill="#1c0323"/><path d="M 771.17 73.44 A 36.72 36.72 0 0 1  807.89 36.72 L 807.89 73.44" fill="#0a010c"/><rect x="807.8888888888889" y="0" width="73.44444444444444" height="73.44444444444444" fill="#23042C"/><rect x="807.89" y="0" width="36.72" height="36.72" fill="#1d2544"/><path d="M 807.89 0 A 36.72 36.72 0 0 1  844.61 36.72 L 807.89 0 A 36.72 36.72 0 0 0 844.61 36.72" fill="#16031c"/><rect x="844.61" y="0" width="36.72" height="36.72" fill="#200428"/><path d="M 844.61 36.72 A 36.72 36.72 0 0 1  881.33 0 L 844.61 36.72 A 36.72 36.72 0 0 0 881.33 0" fill="#1b324e"/><rect x="807.89" y="36.72" width="36.72" height="36.72" fill="#0e0212"/><path d="M 807.89 73.44 A 36.72 36.72 0 0 1  844.61 36.72 L 807.89 73.44 A 36.72 36.72 0 0 0 844.61 36.72" fill="#16021b"/><rect x="844.61" y="36.72" width="36.72" height="36.72" fill="#17031d"/><path d="M 844.61 73.44 A 36.72 36.72 0 0 1  881.33 36.72 L 881.33 73.44" fill="#1c0323"/><rect x="881.33" y="0" width="73.44" height="73.44" fill="#145b6c"/><path d="M 881.33 73.44 A 73.44 73.44 0 0 0 954.77 0 L 881.33 0" fill="#1e2041"/><rect x="954.78" y="0" width="73.44" height="73.44" fill="#17485e"/><path d="M 954.78 73.44 A 73.44 73.44 0 0 0 1028.22 0 L 954.78 0" fill="#136371"/><rect x="1028.22" y="0" width="73.44" height="73.44" fill="#0e0212"/><path d="M 1028.22 73.44 A 73.44 73.44 0 0 0 1101.66 0 L 1028.22 0" fill="#1a3853"/><rect x="1101.6666666666667" y="0" width="73.44444444444444" height="73.44444444444444" fill="#23042C"/><rect x="1101.67" y="0" width="36.72" height="36.72" fill="#1e0326"/><path d="M 1101.67 36.72 A 36.72 36.72 0 0 1  1138.39 0 L 1101.67 36.72 A 36.72 36.72 0 0 0 1138.39 0" fill="#1f0427"/><rect x="1138.39" y="0" width="36.72" height="36.72" fill="#060107"/><path d="M 1138.39 0 A 36.72 36.72 0 0 0 1175.1100000000001 36.72 L 1175.1100000000001 0" fill="#17031d"/><rect x="1101.67" y="36.72" width="36.72" height="36.72" fill="#22042b"/><path d="M 1101.67 36.72 A 36.72 36.72 0 0 1  1138.39 73.44 L 1101.67 36.72 A 36.72 36.72 0 0 0 1138.39 73.44" fill="#1c2e4b"/><rect x="1138.39" y="36.72" width="36.72" height="36.72" fill="#1f0427"/><path d="M 1138.39 73.44 A 36.72 36.72 0 0 0 1175.1100000000001 36.72 L 1138.39 36.72" fill="#1e0326"/><rect x="0" y="73.44" width="73.44" height="73.44" fill="#17485e"/><path d="M 0 146.88 A 73.44 73.44 0 0 0 73.44 73.44 L 0 73.44" fill="#0f7881"/><rect x="73.44" y="73.44" width="73.44" height="73.44" fill="#000000"/><path d="M 73.44 73.44 A 73.44 73.44 0 0 1 146.88 146.88 L 73.44 146.88" fill="#0e7d85"/><rect x="146.89" y="73.44" width="73.44" height="73.44" fill="#1c2a48"/><path d="M 146.89 146.88 A 73.44 73.44 0 0 1  220.32999999999998 73.44 L 220.32999999999998 146.88" fill="#10737d"/><rect x="220.33" y="73.44" width="73.44" height="73.44" fill="#135d6e"/><path d="M 220.33 73.44 A 73.44 73.44 0 0 1 293.77 146.88 L 220.33 146.88" fill="#14596a"/><rect x="293.77777777777777" y="73.44444444444444" width="73.44444444444444" height="73.44444444444444" fill="#23042C"/><rect x="293.78" y="73.44" width="36.72" height="36.72" fill="#040005"/><path d="M 293.78 73.44 A 36.72 36.72 0 0 1 330.5 110.16 L 293.78 110.16" fill="#0f0213"/><rect x="330.5" y="73.44" width="36.72" height="36.72" fill="#0d8087"/><path d="M 330.5 110.16 A 36.72 36.72 0 0 1  367.22 73.44 L 367.22 110.16" fill="#18455c"/><rect x="293.78" y="110.17" width="36.72" height="36.72" fill="#1b344f"/><path d="M 293.78 146.89 A 36.72 36.72 0 0 1  330.5 110.17 L 330.5 146.89" fill="#0c878d"/><rect x="330.5" y="110.17" width="36.72" height="36.72" fill="#10717c"/><path d="M 330.5 110.17 A 36.72 36.72 0 0 1 367.22 146.89 L 330.5 146.89" fill="#116976"/><rect x="367.22222222222223" y="73.44444444444444" width="73.44444444444444" height="73.44444444444444" fill="#23042C"/><rect x="367.22" y="73.44" width="36.72" height="36.72" fill="#1b0322"/><path d="M 367.22 110.16 A 36.72 36.72 0 0 1  403.94000000000005 73.44 L 403.94000000000005 110.16" fill="#10717c"/><rect x="403.94" y="73.44" width="36.72" height="36.72" fill="#0c878c"/><path d="M 403.94 73.44 A 36.72 36.72 0 0 0 440.65999999999997 110.16 L 440.65999999999997 73.44" fill="#0d8087"/><rect x="367.22" y="110.17" width="36.72" height="36.72" fill="#190320"/><path d="M 367.22 110.17 A 36.72 36.72 0 0 0 403.94000000000005 146.89 L 403.94000000000005 110.17" fill="#1e2142"/><rect x="403.94" y="110.17" width="36.72" height="36.72" fill="#193c55"/><path d="M 403.94 110.17 A 36.72 36.72 0 0 0 440.65999999999997 146.89 L 440.65999999999997 110.17" fill="#1b334f"/><rect x="440.66666666666663" y="73.44444444444444" width="73.44444444444444" height="73.44444444444444" fill="#23042C"/><rect x="440.67" y="73.44" width="36.72" height="36.72" fill="#1d2745"/><path d="M 440.67 110.16 A 36.72 36.72 0 0 1  477.39 73.44 L 440.67 110.16 A 36.72 36.72 0 0 0 477.39 73.44" fill="#09010b"/><rect x="477.39" y="73.44" width="36.72" height="36.72" fill="#1f1c3d"/><path d="M 477.39 110.16 A 36.72 36.72 0 0 0 514.11 73.44 L 477.39 73.44" fill="#126573"/><rect x="440.67" y="110.17" width="36.72" height="36.72" fill="#126573"/><path d="M 440.67 110.17 A 36.72 36.72 0 0 1  477.39 146.89 L 440.67 110.17 A 36.72 36.72 0 0 0 477.39 146.89" fill="#050106"/><rect x="477.39" y="110.17" width="36.72" height="36.72" fill="#10707c"/><path d="M 477.39 110.17 A 36.72 36.72 0 0 1  514.11 146.89 L 477.39 110.17 A 36.72 36.72 0 0 0 514.11 146.89" fill="#0d8188"/><rect x="514.11" y="73.44" width="73.44" height="73.44" fill="#23042c"/><path d="M 514.11 73.44 A 73.44 73.44 0 0 1 587.55 146.88 L 514.11 146.88" fill="#116b77"/><rect x="587.56" y="73.44" width="73.44" height="73.44" fill="#116e7a"/><path d="M 587.56 73.44 A 73.44 73.44 0 0 1 661 146.88 L 587.56 146.88" fill="#020002"/><rect x="661" y="73.44" width="73.44" height="73.44" fill="#23042c"/><path d="M 661 146.88 A 73.44 73.44 0 0 1  734.44 73.44 L 661 146.88 A 73.44 73.44 0 0 0 734.44 73.44" fill="#020003"/><rect x="734.44" y="73.44" width="73.44" height="73.44" fill="#1c0323"/><path d="M 734.44 146.88 A 73.44 73.44 0 0 0 807.8800000000001 73.44 L 734.44 73.44" fill="#10707b"/><rect x="807.8888888888889" y="73.44444444444444" width="73.44444444444444" height="73.44444444444444" fill="#23042C"/><rect x="807.89" y="73.44" width="36.72" height="36.72" fill="#0e7a83"/><path d="M 807.89 110.16 A 36.72 36.72 0 0 0 844.61 73.44 L 807.89 73.44" fill="#050106"/><rect x="844.61" y="73.44" width="36.72" height="36.72" fill="#155769"/><path d="M 844.61 73.44 A 36.72 36.72 0 0 0 881.33 110.16 L 881.33 73.44" fill="#1c0324"/><rect x="807.89" y="110.17" width="36.72" height="36.72" fill="#211135"/><path d="M 807.89 110.17 A 36.72 36.72 0 0 1 844.61 146.89 L 807.89 146.89" fill="#1e1e3f"/><rect x="844.61" y="110.17" width="36.72" height="36.72" fill="#1b3450"/><path d="M 844.61 110.17 A 36.72 36.72 0 0 1  881.33 146.89 L 844.61 110.17 A 36.72 36.72 0 0 0 881.33 146.89" fill="#1b344f"/><rect x="881.3333333333333" y="73.44444444444444" width="73.44444444444444" height="73.44444444444444" fill="#23042C"/><rect x="881.33" y="73.44" width="36.72" height="36.72" fill="#210e34"/><path d="M 881.33 73.44 A 36.72 36.72 0 0 0 918.0500000000001 110.16 L 918.0500000000001 73.44" fill="#20183b"/><rect x="918.06" y="73.44" width="36.72" height="36.72" fill="#100214"/><path d="M 918.06 110.16 A 36.72 36.72 0 0 1  954.78 73.44 L 918.06 110.16 A 36.72 36.72 0 0 0 954.78 73.44" fill="#126674"/><rect x="881.33" y="110.17" width="36.72" height="36.72" fill="#0e0212"/><path d="M 881.33 110.17 A 36.72 36.72 0 0 0 918.0500000000001 146.89 L 918.0500000000001 110.17" fill="#1d0325"/><rect x="918.06" y="110.17" width="36.72" height="36.72" fill="#211035"/><path d="M 918.06 110.17 A 36.72 36.72 0 0 1  954.78 146.89 L 918.06 110.17 A 36.72 36.72 0 0 0 954.78 146.89" fill="#22042b"/><rect x="954.78" y="73.44" width="73.44" height="73.44" fill="#1a0321"/><path d="M 954.78 146.88 A 73.44 73.44 0 0 1  1028.22 73.44 L 1028.22 146.88" fill="#08010a"/><rect x="1028.2222222222222" y="73.44444444444444" width="73.44444444444444" height="73.44444444444444" fill="#23042C"/><rect x="1028.22" y="73.44" width="36.72" height="36.72" fill="#126674"/><path d="M 1028.22 73.44 A 36.72 36.72 0 0 1  1064.94 110.16 L 1028.22 73.44 A 36.72 36.72 0 0 0 1064.94 110.16" fill="#10717c"/><rect x="1064.94" y="73.44" width="36.72" height="36.72" fill="#0f7680"/><path d="M 1064.94 110.16 A 36.72 36.72 0 0 1  1101.66 73.44 L 1101.66 110.16" fill="#120217"/><rect x="1028.22" y="110.17" width="36.72" height="36.72" fill="#0f757f"/><path d="M 1028.22 110.17 A 36.72 36.72 0 0 1  1064.94 146.89 L 1028.22 110.17 A 36.72 36.72 0 0 0 1064.94 146.89" fill="#0d8087"/><rect x="1064.94" y="110.17" width="36.72" height="36.72" fill="#18031e"/><path d="M 1064.94 146.89 A 36.72 36.72 0 0 0 1101.66 110.17 L 1064.94 110.17" fill="#1f0427"/><rect x="1101.67" y="73.44" width="73.44" height="73.44" fill="#100215"/><path d="M 1101.67 146.88 A 73.44 73.44 0 0 1  1175.1100000000001 73.44 L 1101.67 146.88 A 73.44 73.44 0 0 0 1175.1100000000001 73.44" fill="#200428"/><rect x="0" y="146.88888888888889" width="73.44444444444444" height="73.44444444444444" fill="#23042C"/><rect x="0" y="146.89" width="36.72" height="36.72" fill="#0c010f"/><path d="M 0 183.60999999999999 A 36.72 36.72 0 0 1  36.72 146.89 L 0 183.60999999999999 A 36.72 36.72 0 0 0 36.72 146.89" fill="#135f6f"/><rect x="36.72" y="146.89" width="36.72" height="36.72" fill="#050106"/><path d="M 36.72 183.60999999999999 A 36.72 36.72 0 0 1  73.44 146.89 L 36.72 183.60999999999999 A 36.72 36.72 0 0 0 73.44 146.89" fill="#0e7f86"/><rect x="0" y="183.61" width="36.72" height="36.72" fill="#0d8087"/><path d="M 0 220.33 A 36.72 36.72 0 0 0 36.72 183.61 L 0 183.61" fill="#174b60"/><rect x="36.72" y="183.61" width="36.72" height="36.72" fill="#135e6e"/><path d="M 36.72 183.61 A 36.72 36.72 0 0 1 73.44 220.33 L 36.72 220.33" fill="#15021b"/><rect x="73.44" y="146.89" width="73.44" height="73.44" fill="#140219"/><path d="M 73.44 146.89 A 73.44 73.44 0 0 0 146.88 220.32999999999998 L 146.88 146.89" fill="#020003"/><rect x="146.89" y="146.89" width="73.44" height="73.44" fill="#070109"/><path d="M 146.89 146.89 A 73.44 73.44 0 0 1  220.32999999999998 220.32999999999998 L 146.89 146.89 A 73.44 73.44 0 0 0 220.32999999999998 220.32999999999998" fill="#1d2746"/><rect x="220.33" y="146.89" width="73.44" height="73.44" fill="#010001"/><path d="M 220.33 146.89 A 73.44 73.44 0 0 1 293.77 220.32999999999998 L 220.33 220.32999999999998" fill="#1c2c49"/><rect x="293.78" y="146.89" width="73.44" height="73.44" fill="#000001"/><path d="M 293.78 220.32999999999998 A 73.44 73.44 0 0 1  367.21999999999997 146.89 L 367.21999999999997 220.32999999999998" fill="#1e0325"/><rect x="367.22" y="146.89" width="73.44" height="73.44" fill="#18031e"/><path d="M 367.22 220.32999999999998 A 73.44 73.44 0 0 1  440.66 146.89 L 367.22 220.32999999999998 A 73.44 73.44 0 0 0 440.66 146.89" fill="#21042a"/><rect x="440.66666666666663" y="146.88888888888889" width="73.44444444444444" height="73.44444444444444" fill="#23042C"/><rect x="440.67" y="146.89" width="36.72" height="36.72" fill="#1f1c3e"/><path d="M 440.67 183.60999999999999 A 36.72 36.72 0 0 1  477.39 146.89 L 440.67 183.60999999999999 A 36.72 36.72 0 0 0 477.39 146.89" fill="#050106"/><rect x="477.39" y="146.89" width="36.72" height="36.72" fill="#030004"/><path d="M 477.39 146.89 A 36.72 36.72 0 0 1  514.11 183.60999999999999 L 477.39 146.89 A 36.72 36.72 0 0 0 514.11 183.60999999999999" fill="#220930"/><rect x="440.67" y="183.61" width="36.72" height="36.72" fill="#0d848a"/><path d="M 440.67 183.61 A 36.72 36.72 0 0 1 477.39 220.33 L 440.67 220.33" fill="#15021a"/><rect x="477.39" y="183.61" width="36.72" height="36.72" fill="#22082f"/><path d="M 477.39 183.61 A 36.72 36.72 0 0 1 514.11 220.33 L 477.39 220.33" fill="#100214"/><rect x="514.11" y="146.89" width="73.44" height="73.44" fill="#1f0427"/><path d="M 514.11 220.32999999999998 A 73.44 73.44 0 0 1  587.55 146.89 L 587.55 220.32999999999998" fill="#140219"/><rect x="587.56" y="146.89" width="73.44" height="73.44" fill="#1b0322"/><path d="M 587.56 146.89 A 73.44 73.44 0 0 1 661 220.32999999999998 L 587.56 220.32999999999998" fill="#1f193b"/><rect x="661" y="146.89" width="73.44" height="73.44" fill="#200428"/><path d="M 661 146.89 A 73.44 73.44 0 0 1  734.44 220.32999999999998 L 661 146.89 A 73.44 73.44 0 0 0 734.44 220.32999999999998" fill="#0f0213"/><rect x="734.4444444444445" y="146.88888888888889" width="73.44444444444444" height="73.44444444444444" fill="#23042C"/><rect x="734.44" y="146.89" width="36.72" height="36.72" fill="#1c2c49"/><path d="M 734.44 146.89 A 36.72 36.72 0 0 0 771.1600000000001 183.60999999999999 L 771.1600000000001 146.89" fill="#23042c"/><rect x="771.17" y="146.89" width="36.72" height="36.72" fill="#0e0211"/><path d="M 771.17 146.89 A 36.72 36.72 0 0 0 807.89 183.60999999999999 L 807.89 146.89" fill="#18031f"/><rect x="734.44" y="183.61" width="36.72" height="36.72" fill="#211034"/><path d="M 734.44 183.61 A 36.72 36.72 0 0 1  771.1600000000001 220.33 L 734.44 183.61 A 36.72 36.72 0 0 0 771.1600000000001 220.33" fill="#0e7d85"/><rect x="771.17" y="183.61" width="36.72" height="36.72" fill="#136070"/><path d="M 771.17 183.61 A 36.72 36.72 0 0 0 807.89 220.33 L 807.89 183.61" fill="#130217"/><rect x="807.89" y="146.89" width="73.44" height="73.44" fill="#1d0324"/><path d="M 807.89 146.89 A 73.44 73.44 0 0 0 881.3299999999999 220.32999999999998 L 881.3299999999999 146.89" fill="#1d2746"/><rect x="881.33" y="146.89" width="73.44" height="73.44" fill="#1d2545"/><path d="M 881.33 220.32999999999998 A 73.44 73.44 0 0 0 954.77 146.89 L 881.33 146.89" fill="#14586a"/><rect x="954.78" y="146.89" width="73.44" height="73.44" fill="#0f0213"/><path d="M 954.78 220.32999999999998 A 73.44 73.44 0 0 0 1028.22 146.89 L 954.78 146.89" fill="#18455c"/><rect x="1028.2222222222222" y="146.88888888888889" width="73.44444444444444" height="73.44444444444444" fill="#23042C"/><rect x="1028.22" y="146.89" width="36.72" height="36.72" fill="#0c868b"/><path d="M 1028.22 146.89 A 36.72 36.72 0 0 1  1064.94 183.60999999999999 L 1028.22 146.89 A 36.72 36.72 0 0 0 1064.94 183.60999999999999" fill="#1e1f40"/><rect x="1064.94" y="146.89" width="36.72" height="36.72" fill="#050107"/><path d="M 1064.94 146.89 A 36.72 36.72 0 0 1 1101.66 183.60999999999999 L 1064.94 183.60999999999999" fill="#020003"/><rect x="1028.22" y="183.61" width="36.72" height="36.72" fill="#1f1d3f"/><path d="M 1028.22 220.33 A 36.72 36.72 0 0 0 1064.94 183.61 L 1028.22 183.61" fill="#211035"/><rect x="1064.94" y="183.61" width="36.72" height="36.72" fill="#220c32"/><path d="M 1064.94 220.33 A 36.72 36.72 0 0 1  1101.66 183.61 L 1064.94 220.33 A 36.72 36.72 0 0 0 1101.66 183.61" fill="#020002"/><rect x="1101.6666666666667" y="146.88888888888889" width="73.44444444444444" height="73.44444444444444" fill="#23042C"/><rect x="1101.67" y="146.89" width="36.72" height="36.72" fill="#1d0324"/><path d="M 1101.67 146.89 A 36.72 36.72 0 0 0 1138.39 183.60999999999999 L 1138.39 146.89" fill="#1e2242"/><rect x="1138.39" y="146.89" width="36.72" height="36.72" fill="#16031c"/><path d="M 1138.39 183.60999999999999 A 36.72 36.72 0 0 1  1175.1100000000001 146.89 L 1175.1100000000001 183.60999999999999" fill="#1a3953"/><rect x="1101.67" y="183.61" width="36.72" height="36.72" fill="#21042a"/><path d="M 1101.67 220.33 A 36.72 36.72 0 0 0 1138.39 183.61 L 1101.67 183.61" fill="#0a010c"/><rect x="1138.39" y="183.61" width="36.72" height="36.72" fill="#155568"/><path d="M 1138.39 220.33 A 36.72 36.72 0 0 1  1175.1100000000001 183.61 L 1175.1100000000001 220.33" fill="#140219"/><rect x="0" y="220.33333333333331" width="73.44444444444444" height="73.44444444444444" fill="#23042C"/><rect x="0" y="220.33" width="36.72" height="36.72" fill="#1f193b"/><path d="M 0 257.05 A 36.72 36.72 0 0 1  36.72 220.33 L 0 257.05 A 36.72 36.72 0 0 0 36.72 220.33" fill="#174b60"/><rect x="36.72" y="220.33" width="36.72" height="36.72" fill="#08010a"/><path d="M 36.72 220.33 A 36.72 36.72 0 0 0 73.44 257.05 L 73.44 220.33" fill="#130218"/><rect x="0" y="257.06" width="36.72" height="36.72" fill="#040005"/><path d="M 0 293.78 A 36.72 36.72 0 0 1  36.72 257.06 L 36.72 293.78" fill="#060107"/><rect x="36.72" y="257.06" width="36.72" height="36.72" fill="#1c2d4a"/><path d="M 36.72 257.06 A 36.72 36.72 0 0 1  73.44 293.78 L 36.72 257.06 A 36.72 36.72 0 0 0 73.44 293.78" fill="#0f0213"/><rect x="73.44444444444444" y="220.33333333333331" width="73.44444444444444" height="73.44444444444444" fill="#23042C"/><rect x="73.44" y="220.33" width="36.72" height="36.72" fill="#126875"/><path d="M 73.44 257.05 A 36.72 36.72 0 0 0 110.16 220.33 L 73.44 220.33" fill="#164e62"/><rect x="110.17" y="220.33" width="36.72" height="36.72" fill="#1e2343"/><path d="M 110.17 257.05 A 36.72 36.72 0 0 1  146.89 220.33 L 110.17 257.05 A 36.72 36.72 0 0 0 146.89 220.33" fill="#1b344f"/><rect x="73.44" y="257.06" width="36.72" height="36.72" fill="#126573"/><path d="M 73.44 293.78 A 36.72 36.72 0 0 1  110.16 257.06 L 73.44 293.78 A 36.72 36.72 0 0 0 110.16 257.06" fill="#050106"/><rect x="110.17" y="257.06" width="36.72" height="36.72" fill="#193b54"/><path d="M 110.17 293.78 A 36.72 36.72 0 0 0 146.89 257.06 L 110.17 257.06" fill="#1d0324"/><rect x="146.89" y="220.33" width="73.44" height="73.44" fill="#1d2444"/><path d="M 146.89 293.77 A 73.44 73.44 0 0 0 220.32999999999998 220.33 L 146.89 220.33" fill="#116b78"/><rect x="220.33" y="220.33" width="73.44" height="73.44" fill="#190320"/><path d="M 220.33 293.77 A 73.44 73.44 0 0 0 293.77 220.33 L 220.33 220.33" fill="#13606f"/><rect x="293.77777777777777" y="220.33333333333331" width="73.44444444444444" height="73.44444444444444" fill="#23042C"/><rect x="293.78" y="220.33" width="36.72" height="36.72" fill="#1a3650"/><path d="M 293.78 257.05 A 36.72 36.72 0 0 0 330.5 220.33 L 293.78 220.33" fill="#110215"/><rect x="330.5" y="220.33" width="36.72" height="36.72" fill="#09010c"/><path d="M 330.5 220.33 A 36.72 36.72 0 0 0 367.22 257.05 L 367.22 220.33" fill="#0e7d85"/><rect x="293.78" y="257.06" width="36.72" height="36.72" fill="#165064"/><path d="M 293.78 293.78 A 36.72 36.72 0 0 1  330.5 257.06 L 330.5 293.78" fill="#1f0427"/><rect x="330.5" y="257.06" width="36.72" height="36.72" fill="#145c6d"/><path d="M 330.5 257.06 A 36.72 36.72 0 0 0 367.22 293.78 L 367.22 257.06" fill="#135f6f"/><rect x="367.22222222222223" y="220.33333333333331" width="73.44444444444444" height="73.44444444444444" fill="#23042C"/><rect x="367.22" y="220.33" width="36.72" height="36.72" fill="#194058"/><path d="M 367.22 220.33 A 36.72 36.72 0 0 0 403.94000000000005 257.05 L 403.94000000000005 220.33" fill="#1d2645"/><rect x="403.94" y="220.33" width="36.72" height="36.72" fill="#070109"/><path d="M 403.94 220.33 A 36.72 36.72 0 0 1  440.65999999999997 257.05 L 403.94 220.33 A 36.72 36.72 0 0 0 440.65999999999997 257.05" fill="#1c0324"/><rect x="367.22" y="257.06" width="36.72" height="36.72" fill="#1a3651"/><path d="M 367.22 293.78 A 36.72 36.72 0 0 1  403.94000000000005 257.06 L 403.94000000000005 293.78" fill="#10717c"/><rect x="403.94" y="257.06" width="36.72" height="36.72" fill="#1d2645"/><path d="M 403.94 293.78 A 36.72 36.72 0 0 1  440.65999999999997 257.06 L 440.65999999999997 293.78" fill="#116d79"/><rect x="440.66666666666663" y="220.33333333333331" width="73.44444444444444" height="73.44444444444444" fill="#23042C"/><rect x="440.67" y="220.33" width="36.72" height="36.72" fill="#13606f"/><path d="M 440.67 257.05 A 36.72 36.72 0 0 1  477.39 220.33 L 477.39 257.05" fill="#0d0211"/><rect x="477.39" y="220.33" width="36.72" height="36.72" fill="#164d62"/><path d="M 477.39 220.33 A 36.72 36.72 0 0 0 514.11 257.05 L 514.11 220.33" fill="#17031d"/><rect x="440.67" y="257.06" width="36.72" height="36.72" fill="#1f1c3e"/><path d="M 440.67 293.78 A 36.72 36.72 0 0 1  477.39 257.06 L 440.67 293.78 A 36.72 36.72 0 0 0 477.39 257.06" fill="#18031e"/><rect x="477.39" y="257.06" width="36.72" height="36.72" fill="#10727d"/><path d="M 477.39 293.78 A 36.72 36.72 0 0 0 514.11 257.06 L 477.39 257.06" fill="#0d0110"/><rect x="514.1111111111111" y="220.33333333333331" width="73.44444444444444" height="73.44444444444444" fill="#23042C"/><rect x="514.11" y="220.33" width="36.72" height="36.72" fill="#010001"/><path d="M 514.11 257.05 A 36.72 36.72 0 0 1  550.83 220.33 L 514.11 257.05 A 36.72 36.72 0 0 0 550.83 220.33" fill="#110216"/><rect x="550.83" y="220.33" width="36.72" height="36.72" fill="#09010c"/><path d="M 550.83 220.33 A 36.72 36.72 0 0 1 587.5500000000001 257.05 L 550.83 257.05" fill="#16031c"/><rect x="514.11" y="257.06" width="36.72" height="36.72" fill="#1d2645"/><path d="M 514.11 257.06 A 36.72 36.72 0 0 1  550.83 293.78 L 514.11 257.06 A 36.72 36.72 0 0 0 550.83 293.78" fill="#210f34"/><rect x="550.83" y="257.06" width="36.72" height="36.72" fill="#070109"/><path d="M 550.83 293.78 A 36.72 36.72 0 0 1  587.5500000000001 257.06 L 587.5500000000001 293.78" fill="#136070"/><rect x="587.5555555555555" y="220.33333333333331" width="73.44444444444444" height="73.44444444444444" fill="#23042C"/><rect x="587.56" y="220.33" width="36.72" height="36.72" fill="#110215"/><path d="M 587.56 220.33 A 36.72 36.72 0 0 1  624.28 257.05 L 587.56 220.33 A 36.72 36.72 0 0 0 624.28 257.05" fill="#193b55"/><rect x="624.28" y="220.33" width="36.72" height="36.72" fill="#21042a"/><path d="M 624.28 220.33 A 36.72 36.72 0 0 0 661 257.05 L 661 220.33" fill="#110215"/><rect x="587.56" y="257.06" width="36.72" height="36.72" fill="#1d2645"/><path d="M 587.56 293.78 A 36.72 36.72 0 0 1  624.28 257.06 L 587.56 293.78 A 36.72 36.72 0 0 0 624.28 257.06" fill="#1c0323"/><rect x="624.28" y="257.06" width="36.72" height="36.72" fill="#16031c"/><path d="M 624.28 257.06 A 36.72 36.72 0 0 1 661 293.78 L 624.28 293.78" fill="#15021a"/><rect x="661" y="220.33" width="73.44" height="73.44" fill="#106e7a"/><path d="M 661 293.77 A 73.44 73.44 0 0 1  734.44 220.33 L 661 293.77 A 73.44 73.44 0 0 0 734.44 220.33" fill="#060108"/><rect x="734.4444444444445" y="220.33333333333331" width="73.44444444444444" height="73.44444444444444" fill="#23042C"/><rect x="734.44" y="220.33" width="36.72" height="36.72" fill="#0b010e"/><path d="M 734.44 220.33 A 36.72 36.72 0 0 1 771.1600000000001 257.05 L 734.44 257.05" fill="#15021a"/><rect x="771.17" y="220.33" width="36.72" height="36.72" fill="#22042a"/><path d="M 771.17 257.05 A 36.72 36.72 0 0 1  807.89 220.33 L 807.89 257.05" fill="#116d79"/><rect x="734.44" y="257.06" width="36.72" height="36.72" fill="#23042c"/><path d="M 734.44 257.06 A 36.72 36.72 0 0 1  771.1600000000001 293.78 L 734.44 257.06 A 36.72 36.72 0 0 0 771.1600000000001 293.78" fill="#0f7982"/><rect x="771.17" y="257.06" width="36.72" height="36.72" fill="#164e62"/><path d="M 771.17 293.78 A 36.72 36.72 0 0 0 807.89 257.06 L 771.17 257.06" fill="#010002"/><rect x="807.8888888888889" y="220.33333333333331" width="73.44444444444444" height="73.44444444444444" fill="#23042C"/><rect x="807.89" y="220.33" width="36.72" height="36.72" fill="#1b314d"/><path d="M 807.89 220.33 A 36.72 36.72 0 0 0 844.61 257.05 L 844.61 220.33" fill="#17031d"/><rect x="844.61" y="220.33" width="36.72" height="36.72" fill="#106f7a"/><path d="M 844.61 220.33 A 36.72 36.72 0 0 0 881.33 257.05 L 881.33 220.33" fill="#1a3751"/><rect x="807.89" y="257.06" width="36.72" height="36.72" fill="#030004"/><path d="M 807.89 293.78 A 36.72 36.72 0 0 1  844.61 257.06 L 844.61 293.78" fill="#0b010e"/><rect x="844.61" y="257.06" width="36.72" height="36.72" fill="#0c878c"/><path d="M 844.61 257.06 A 36.72 36.72 0 0 1  881.33 293.78 L 844.61 257.06 A 36.72 36.72 0 0 0 881.33 293.78" fill="#1d0324"/><rect x="881.33" y="220.33" width="73.44" height="73.44" fill="#135e6e"/><path d="M 881.33 220.33 A 73.44 73.44 0 0 1  954.77 293.77 L 881.33 220.33 A 73.44 73.44 0 0 0 954.77 293.77" fill="#1d0324"/><rect x="954.7777777777777" y="220.33333333333331" width="73.44444444444444" height="73.44444444444444" fill="#23042C"/><rect x="954.78" y="220.33" width="36.72" height="36.72" fill="#1d0325"/><path d="M 954.78 220.33 A 36.72 36.72 0 0 0 991.5 257.05 L 991.5 220.33" fill="#0f0213"/><rect x="991.5" y="220.33" width="36.72" height="36.72" fill="#0f0213"/><path d="M 991.5 257.05 A 36.72 36.72 0 0 1  1028.22 220.33 L 991.5 257.05 A 36.72 36.72 0 0 0 1028.22 220.33" fill="#020003"/><rect x="954.78" y="257.06" width="36.72" height="36.72" fill="#174b60"/><path d="M 954.78 293.78 A 36.72 36.72 0 0 0 991.5 257.06 L 954.78 257.06" fill="#0e0212"/><rect x="991.5" y="257.06" width="36.72" height="36.72" fill="#08010b"/><path d="M 991.5 257.06 A 36.72 36.72 0 0 1 1028.22 293.78 L 991.5 293.78" fill="#145b6c"/><rect x="1028.22" y="220.33" width="73.44" height="73.44" fill="#16021b"/><path d="M 1028.22 293.77 A 73.44 73.44 0 0 1  1101.66 220.33 L 1028.22 293.77 A 73.44 73.44 0 0 0 1101.66 220.33" fill="#0e0211"/><rect x="1101.6666666666667" y="220.33333333333331" width="73.44444444444444" height="73.44444444444444" fill="#23042C"/><rect x="1101.67" y="220.33" width="36.72" height="36.72" fill="#1f0427"/><path d="M 1101.67 220.33 A 36.72 36.72 0 0 1  1138.39 257.05 L 1101.67 220.33 A 36.72 36.72 0 0 0 1138.39 257.05" fill="#100214"/><rect x="1138.39" y="220.33" width="36.72" height="36.72" fill="#1d0325"/><path d="M 1138.39 220.33 A 36.72 36.72 0 0 1 1175.1100000000001 257.05 L 1138.39 257.05" fill="#0e7e85"/><rect x="1101.67" y="257.06" width="36.72" height="36.72" fill="#0e7a83"/><path d="M 1101.67 257.06 A 36.72 36.72 0 0 1  1138.39 293.78 L 1101.67 257.06 A 36.72 36.72 0 0 0 1138.39 293.78" fill="#16031c"/><rect x="1138.39" y="257.06" width="36.72" height="36.72" fill="#1d2847"/><path d="M 1138.39 293.78 A 36.72 36.72 0 0 1  1175.1100000000001 257.06 L 1138.39 293.78 A 36.72 36.72 0 0 0 1175.1100000000001 257.06" fill="#201639"/><rect x="0" y="293.78" width="73.44" height="73.44" fill="#10707c"/><path d="M 0 293.78 A 73.44 73.44 0 0 1 73.44 367.21999999999997 L 0 367.21999999999997" fill="#1c0323"/><rect x="73.44444444444444" y="293.77777777777777" width="73.44444444444444" height="73.44444444444444" fill="#23042C"/><rect x="73.44" y="293.78" width="36.72" height="36.72" fill="#18031e"/><path d="M 73.44 330.5 A 36.72 36.72 0 0 0 110.16 293.78 L 73.44 293.78" fill="#09010c"/><rect x="110.17" y="293.78" width="36.72" height="36.72" fill="#1a0320"/><path d="M 110.17 330.5 A 36.72 36.72 0 0 1  146.89 293.78 L 110.17 330.5 A 36.72 36.72 0 0 0 146.89 293.78" fill="#200428"/><rect x="73.44" y="330.5" width="36.72" height="36.72" fill="#010001"/><path d="M 73.44 367.22 A 36.72 36.72 0 0 1  110.16 330.5 L 73.44 367.22 A 36.72 36.72 0 0 0 110.16 330.5" fill="#210f34"/><rect x="110.17" y="330.5" width="36.72" height="36.72" fill="#23042c"/><path d="M 110.17 367.22 A 36.72 36.72 0 0 1  146.89 330.5 L 110.17 367.22 A 36.72 36.72 0 0 0 146.89 330.5" fill="#1e2041"/><rect x="146.88888888888889" y="293.77777777777777" width="73.44444444444444" height="73.44444444444444" fill="#23042C"/><rect x="146.89" y="293.78" width="36.72" height="36.72" fill="#1f1e3f"/><path d="M 146.89 330.5 A 36.72 36.72 0 0 1  183.60999999999999 293.78 L 146.89 330.5 A 36.72 36.72 0 0 0 183.60999999999999 293.78" fill="#16021b"/><rect x="183.61" y="293.78" width="36.72" height="36.72" fill="#030003"/><path d="M 183.61 293.78 A 36.72 36.72 0 0 1 220.33 330.5 L 183.61 330.5" fill="#1e2343"/><rect x="146.89" y="330.5" width="36.72" height="36.72" fill="#0e0211"/><path d="M 146.89 330.5 A 36.72 36.72 0 0 1 183.60999999999999 367.22 L 146.89 367.22" fill="#110216"/><rect x="183.61" y="330.5" width="36.72" height="36.72" fill="#201539"/><path d="M 183.61 330.5 A 36.72 36.72 0 0 1 220.33 367.22 L 183.61 367.22" fill="#09010c"/><rect x="220.33333333333331" y="293.77777777777777" width="73.44444444444444" height="73.44444444444444" fill="#23042C"/><rect x="220.33" y="293.78" width="36.72" height="36.72" fill="#201438"/><path d="M 220.33 293.78 A 36.72 36.72 0 0 1  257.05 330.5 L 220.33 293.78 A 36.72 36.72 0 0 0 257.05 330.5" fill="#220c32"/><rect x="257.06" y="293.78" width="36.72" height="36.72" fill="#135d6e"/><path d="M 257.06 293.78 A 36.72 36.72 0 0 1  293.78 330.5 L 257.06 293.78 A 36.72 36.72 0 0 0 293.78 330.5" fill="#20183b"/><rect x="220.33" y="330.5" width="36.72" height="36.72" fill="#1d2545"/><path d="M 220.33 367.22 A 36.72 36.72 0 0 1  257.05 330.5 L 220.33 367.22 A 36.72 36.72 0 0 0 257.05 330.5" fill="#16021b"/><rect x="257.06" y="330.5" width="36.72" height="36.72" fill="#164c61"/><path d="M 257.06 330.5 A 36.72 36.72 0 0 1 293.78 367.22 L 257.06 367.22" fill="#0f7881"/><rect x="293.78" y="293.78" width="73.44" height="73.44" fill="#09010c"/><path d="M 293.78 367.21999999999997 A 73.44 73.44 0 0 1  367.21999999999997 293.78 L 293.78 367.21999999999997 A 73.44 73.44 0 0 0 367.21999999999997 293.78" fill="#116e7a"/><rect x="367.22222222222223" y="293.77777777777777" width="73.44444444444444" height="73.44444444444444" fill="#23042C"/><rect x="367.22" y="293.78" width="36.72" height="36.72" fill="#0d8087"/><path d="M 367.22 330.5 A 36.72 36.72 0 0 1  403.94000000000005 293.78 L 403.94000000000005 330.5" fill="#116d79"/><rect x="403.94" y="293.78" width="36.72" height="36.72" fill="#201438"/><path d="M 403.94 330.5 A 36.72 36.72 0 0 1  440.65999999999997 293.78 L 403.94 330.5 A 36.72 36.72 0 0 0 440.65999999999997 293.78" fill="#18465c"/><rect x="367.22" y="330.5" width="36.72" height="36.72" fill="#136271"/><path d="M 367.22 367.22 A 36.72 36.72 0 0 1  403.94000000000005 330.5 L 403.94000000000005 367.22" fill="#060107"/><rect x="403.94" y="330.5" width="36.72" height="36.72" fill="#145b6c"/><path d="M 403.94 330.5 A 36.72 36.72 0 0 0 440.65999999999997 367.22 L 440.65999999999997 330.5" fill="#0a010c"/><rect x="440.67" y="293.78" width="73.44" height="73.44" fill="#070109"/><path d="M 440.67 367.21999999999997 A 73.44 73.44 0 0 1  514.11 293.78 L 514.11 367.21999999999997" fill="#0e7c84"/><rect x="514.1111111111111" y="293.77777777777777" width="73.44444444444444" height="73.44444444444444" fill="#23042C"/><rect x="514.11" y="293.78" width="36.72" height="36.72" fill="#08010a"/><path d="M 514.11 293.78 A 36.72 36.72 0 0 1  550.83 330.5 L 514.11 293.78 A 36.72 36.72 0 0 0 550.83 330.5" fill="#0d0110"/><rect x="550.83" y="293.78" width="36.72" height="36.72" fill="#1f193b"/><path d="M 550.83 330.5 A 36.72 36.72 0 0 1  587.5500000000001 293.78 L 587.5500000000001 330.5" fill="#0a010d"/><rect x="514.11" y="330.5" width="36.72" height="36.72" fill="#145a6c"/><path d="M 514.11 330.5 A 36.72 36.72 0 0 0 550.83 367.22 L 550.83 330.5" fill="#0d0110"/><rect x="550.83" y="330.5" width="36.72" height="36.72" fill="#200429"/><path d="M 550.83 330.5 A 36.72 36.72 0 0 1 587.5500000000001 367.22 L 550.83 367.22" fill="#18465c"/><rect x="587.56" y="293.78" width="73.44" height="73.44" fill="#1f193b"/><path d="M 587.56 367.21999999999997 A 73.44 73.44 0 0 1  661 293.78 L 661 367.21999999999997" fill="#0f7680"/><rect x="661" y="293.78" width="73.44" height="73.44" fill="#1a3a53"/><path d="M 661 293.78 A 73.44 73.44 0 0 1  734.44 367.21999999999997 L 661 293.78 A 73.44 73.44 0 0 0 734.44 367.21999999999997" fill="#22042b"/><rect x="734.4444444444445" y="293.77777777777777" width="73.44444444444444" height="73.44444444444444" fill="#23042C"/><rect x="734.44" y="293.78" width="36.72" height="36.72" fill="#0d8289"/><path d="M 734.44 330.5 A 36.72 36.72 0 0 1  771.1600000000001 293.78 L 771.1600000000001 330.5" fill="#0f757f"/><rect x="771.17" y="293.78" width="36.72" height="36.72" fill="#040005"/><path d="M 771.17 293.78 A 36.72 36.72 0 0 1 807.89 330.5 L 771.17 330.5" fill="#22042a"/><rect x="734.44" y="330.5" width="36.72" height="36.72" fill="#190320"/><path d="M 734.44 367.22 A 36.72 36.72 0 0 0 771.1600000000001 330.5 L 734.44 330.5" fill="#1c2b49"/><rect x="771.17" y="330.5" width="36.72" height="36.72" fill="#1a3852"/><path d="M 771.17 330.5 A 36.72 36.72 0 0 1  807.89 367.22 L 771.17 330.5 A 36.72 36.72 0 0 0 807.89 367.22" fill="#130218"/><rect x="807.8888888888889" y="293.77777777777777" width="73.44444444444444" height="73.44444444444444" fill="#23042C"/><rect x="807.89" y="293.78" width="36.72" height="36.72" fill="#0d848a"/><path d="M 807.89 330.5 A 36.72 36.72 0 0 1  844.61 293.78 L 844.61 330.5" fill="#184159"/><rect x="844.61" y="293.78" width="36.72" height="36.72" fill="#0c878c"/><path d="M 844.61 330.5 A 36.72 36.72 0 0 0 881.33 293.78 L 844.61 293.78" fill="#200428"/><rect x="807.89" y="330.5" width="36.72" height="36.72" fill="#09010b"/><path d="M 807.89 367.22 A 36.72 36.72 0 0 1  844.61 330.5 L 844.61 367.22" fill="#020003"/><rect x="844.61" y="330.5" width="36.72" height="36.72" fill="#18425a"/><path d="M 844.61 367.22 A 36.72 36.72 0 0 0 881.33 330.5 L 844.61 330.5" fill="#010001"/><rect x="881.3333333333333" y="293.77777777777777" width="73.44444444444444" height="73.44444444444444" fill="#23042C"/><rect x="881.33" y="293.78" width="36.72" height="36.72" fill="#08010a"/><path d="M 881.33 330.5 A 36.72 36.72 0 0 1  918.0500000000001 293.78 L 918.0500000000001 330.5" fill="#1f0427"/><rect x="918.06" y="293.78" width="36.72" height="36.72" fill="#1b0322"/><path d="M 918.06 293.78 A 36.72 36.72 0 0 1  954.78 330.5 L 918.06 293.78 A 36.72 36.72 0 0 0 954.78 330.5" fill="#155366"/><rect x="881.33" y="330.5" width="36.72" height="36.72" fill="#184259"/><path d="M 881.33 367.22 A 36.72 36.72 0 0 1  918.0500000000001 330.5 L 881.33 367.22 A 36.72 36.72 0 0 0 918.0500000000001 330.5" fill="#1c2e4b"/><rect x="918.06" y="330.5" width="36.72" height="36.72" fill="#20173a"/><path d="M 918.06 367.22 A 36.72 36.72 0 0 1  954.78 330.5 L 918.06 367.22 A 36.72 36.72 0 0 0 954.78 330.5" fill="#0a010d"/><rect x="954.78" y="293.78" width="73.44" height="73.44" fill="#23062d"/><path d="M 954.78 293.78 A 73.44 73.44 0 0 1 1028.22 367.21999999999997 L 954.78 367.21999999999997" fill="#200428"/><rect x="1028.22" y="293.78" width="73.44" height="73.44" fill="#1e0326"/><path d="M 1028.22 293.78 A 73.44 73.44 0 0 1 1101.66 367.21999999999997 L 1028.22 367.21999999999997" fill="#18031f"/><rect x="1101.67" y="293.78" width="73.44" height="73.44" fill="#000000"/><path d="M 1101.67 367.21999999999997 A 73.44 73.44 0 0 0 1175.1100000000001 293.78 L 1101.67 293.78" fill="#1f1e3f"/><rect x="0" y="367.22" width="73.44" height="73.44" fill="#1c2c4a"/><path d="M 0 367.22 A 73.44 73.44 0 0 0 73.44 440.66 L 73.44 367.22" fill="#1c2a48"/><rect x="73.44" y="367.22" width="73.44" height="73.44" fill="#020003"/><path d="M 73.44 367.22 A 73.44 73.44 0 0 0 146.88 440.66 L 146.88 367.22" fill="#1d2746"/><rect x="146.89" y="367.22" width="73.44" height="73.44" fill="#040106"/><path d="M 146.89 440.66 A 73.44 73.44 0 0 1  220.32999999999998 367.22 L 146.89 440.66 A 73.44 73.44 0 0 0 220.32999999999998 367.22" fill="#1e2141"/><rect x="220.33" y="367.22" width="73.44" height="73.44" fill="#201337"/><path d="M 220.33 367.22 A 73.44 73.44 0 0 1  293.77 440.66 L 220.33 367.22 A 73.44 73.44 0 0 0 293.77 440.66" fill="#1c2b49"/><rect x="293.78" y="367.22" width="73.44" height="73.44" fill="#211236"/><path d="M 293.78 367.22 A 73.44 73.44 0 0 1  367.21999999999997 440.66 L 293.78 367.22 A 73.44 73.44 0 0 0 367.21999999999997 440.66" fill="#1b304c"/><rect x="367.22" y="367.22" width="73.44" height="73.44" fill="#1f183b"/><path d="M 367.22 440.66 A 73.44 73.44 0 0 1  440.66 367.22 L 367.22 440.66 A 73.44 73.44 0 0 0 440.66 367.22" fill="#030004"/><rect x="440.66666666666663" y="367.22222222222223" width="73.44444444444444" height="73.44444444444444" fill="#23042C"/><rect x="440.67" y="367.22" width="36.72" height="36.72" fill="#201438"/><path d="M 440.67 403.94000000000005 A 36.72 36.72 0 0 1  477.39 367.22 L 440.67 403.94000000000005 A 36.72 36.72 0 0 0 477.39 367.22" fill="#10747e"/><rect x="477.39" y="367.22" width="36.72" height="36.72" fill="#10717c"/><path d="M 477.39 367.22 A 36.72 36.72 0 0 1  514.11 403.94000000000005 L 477.39 367.22 A 36.72 36.72 0 0 0 514.11 403.94000000000005" fill="#120217"/><rect x="440.67" y="403.94" width="36.72" height="36.72" fill="#030003"/><path d="M 440.67 403.94 A 36.72 36.72 0 0 0 477.39 440.65999999999997 L 477.39 403.94" fill="#1f183b"/><rect x="477.39" y="403.94" width="36.72" height="36.72" fill="#1d2846"/><path d="M 477.39 440.65999999999997 A 36.72 36.72 0 0 1  514.11 403.94 L 477.39 440.65999999999997 A 36.72 36.72 0 0 0 514.11 403.94" fill="#09010b"/><rect x="514.1111111111111" y="367.22222222222223" width="73.44444444444444" height="73.44444444444444" fill="#23042C"/><rect x="514.11" y="367.22" width="36.72" height="36.72" fill="#145d6d"/><path d="M 514.11 403.94000000000005 A 36.72 36.72 0 0 0 550.83 367.22 L 514.11 367.22" fill="#1e0326"/><rect x="550.83" y="367.22" width="36.72" height="36.72" fill="#0d0211"/><path d="M 550.83 367.22 A 36.72 36.72 0 0 0 587.5500000000001 403.94000000000005 L 587.5500000000001 367.22" fill="#0e0212"/><rect x="514.11" y="403.94" width="36.72" height="36.72" fill="#1c0323"/><path d="M 514.11 403.94 A 36.72 36.72 0 0 0 550.83 440.65999999999997 L 550.83 403.94" fill="#1d0325"/><rect x="550.83" y="403.94" width="36.72" height="36.72" fill="#050107"/><path d="M 550.83 440.65999999999997 A 36.72 36.72 0 0 1  587.5500000000001 403.94 L 587.5500000000001 440.65999999999997" fill="#15021a"/><rect x="587.56" y="367.22" width="73.44" height="73.44" fill="#22042a"/><path d="M 587.56 440.66 A 73.44 73.44 0 0 0 661 367.22 L 587.56 367.22" fill="#060107"/><rect x="661" y="367.22222222222223" width="73.44444444444444" height="73.44444444444444" fill="#23042C"/><rect x="661" y="367.22" width="36.72" height="36.72" fill="#0f7781"/><path d="M 661 367.22 A 36.72 36.72 0 0 1 697.72 403.94000000000005 L 661 403.94000000000005" fill="#08010a"/><rect x="697.72" y="367.22" width="36.72" height="36.72" fill="#1f0428"/><path d="M 697.72 367.22 A 36.72 36.72 0 0 1 734.44 403.94000000000005 L 697.72 403.94000000000005" fill="#020003"/><rect x="661" y="403.94" width="36.72" height="36.72" fill="#1b334f"/><path d="M 661 403.94 A 36.72 36.72 0 0 1  697.72 440.65999999999997 L 661 403.94 A 36.72 36.72 0 0 0 697.72 440.65999999999997" fill="#211035"/><rect x="697.72" y="403.94" width="36.72" height="36.72" fill="#10727d"/><path d="M 697.72 403.94 A 36.72 36.72 0 0 0 734.44 440.65999999999997 L 734.44 403.94" fill="#1c2c49"/><rect x="734.44" y="367.22" width="73.44" height="73.44" fill="#193f57"/><path d="M 734.44 440.66 A 73.44 73.44 0 0 1  807.8800000000001 367.22 L 807.8800000000001 440.66" fill="#17475d"/><rect x="807.8888888888889" y="367.22222222222223" width="73.44444444444444" height="73.44444444444444" fill="#23042C"/><rect x="807.89" y="367.22" width="36.72" height="36.72" fill="#08010a"/><path d="M 807.89 403.94000000000005 A 36.72 36.72 0 0 0 844.61 367.22 L 807.89 367.22" fill="#14586a"/><rect x="844.61" y="367.22" width="36.72" height="36.72" fill="#0f757f"/><path d="M 844.61 367.22 A 36.72 36.72 0 0 1 881.33 403.94000000000005 L 844.61 403.94000000000005" fill="#1b3550"/><rect x="807.89" y="403.94" width="36.72" height="36.72" fill="#0e7d85"/><path d="M 807.89 403.94 A 36.72 36.72 0 0 0 844.61 440.65999999999997 L 844.61 403.94" fill="#020003"/><rect x="844.61" y="403.94" width="36.72" height="36.72" fill="#20183a"/><path d="M 844.61 403.94 A 36.72 36.72 0 0 1 881.33 440.65999999999997 L 844.61 440.65999999999997" fill="#1e2142"/><rect x="881.3333333333333" y="367.22222222222223" width="73.44444444444444" height="73.44444444444444" fill="#23042C"/><rect x="881.33" y="367.22" width="36.72" height="36.72" fill="#09010c"/><path d="M 881.33 403.94000000000005 A 36.72 36.72 0 0 0 918.0500000000001 367.22 L 881.33 367.22" fill="#0e7f86"/><rect x="918.06" y="367.22" width="36.72" height="36.72" fill="#0f0213"/><path d="M 918.06 367.22 A 36.72 36.72 0 0 0 954.78 403.94000000000005 L 954.78 367.22" fill="#1f0427"/><rect x="881.33" y="403.94" width="36.72" height="36.72" fill="#0a010c"/><path d="M 881.33 403.94 A 36.72 36.72 0 0 1 918.0500000000001 440.65999999999997 L 881.33 440.65999999999997" fill="#155366"/><rect x="918.06" y="403.94" width="36.72" height="36.72" fill="#16031c"/><path d="M 918.06 403.94 A 36.72 36.72 0 0 1 954.78 440.65999999999997 L 918.06 440.65999999999997" fill="#135e6e"/><rect x="954.7777777777777" y="367.22222222222223" width="73.44444444444444" height="73.44444444444444" fill="#23042C"/><rect x="954.78" y="367.22" width="36.72" height="36.72" fill="#0e7a83"/><path d="M 954.78 403.94000000000005 A 36.72 36.72 0 0 0 991.5 367.22 L 954.78 367.22" fill="#174b60"/><rect x="991.5" y="367.22" width="36.72" height="36.72" fill="#0e7e85"/><path d="M 991.5 367.22 A 36.72 36.72 0 0 1  1028.22 403.94000000000005 L 991.5 367.22 A 36.72 36.72 0 0 0 1028.22 403.94000000000005" fill="#1e2343"/><rect x="954.78" y="403.94" width="36.72" height="36.72" fill="#220b31"/><path d="M 954.78 403.94 A 36.72 36.72 0 0 1  991.5 440.65999999999997 L 954.78 403.94 A 36.72 36.72 0 0 0 991.5 440.65999999999997" fill="#1f0427"/><rect x="991.5" y="403.94" width="36.72" height="36.72" fill="#0d0211"/><path d="M 991.5 440.65999999999997 A 36.72 36.72 0 0 0 1028.22 403.94 L 991.5 403.94" fill="#1c2c4a"/><rect x="1028.22" y="367.22" width="73.44" height="73.44" fill="#0f7881"/><path d="M 1028.22 367.22 A 73.44 73.44 0 0 0 1101.66 440.66 L 1101.66 367.22" fill="#0d8188"/><rect x="1101.6666666666667" y="367.22222222222223" width="73.44444444444444" height="73.44444444444444" fill="#23042C"/><rect x="1101.67" y="367.22" width="36.72" height="36.72" fill="#1f193b"/><path d="M 1101.67 403.94000000000005 A 36.72 36.72 0 0 1  1138.39 367.22 L 1101.67 403.94000000000005 A 36.72 36.72 0 0 0 1138.39 367.22" fill="#0c868b"/><rect x="1138.39" y="367.22" width="36.72" height="36.72" fill="#000001"/><path d="M 1138.39 367.22 A 36.72 36.72 0 0 0 1175.1100000000001 403.94000000000005 L 1175.1100000000001 367.22" fill="#030004"/><rect x="1101.67" y="403.94" width="36.72" height="36.72" fill="#1c2947"/><path d="M 1101.67 403.94 A 36.72 36.72 0 0 0 1138.39 440.65999999999997 L 1138.39 403.94" fill="#1d2645"/><rect x="1138.39" y="403.94" width="36.72" height="36.72" fill="#0d0110"/><path d="M 1138.39 440.65999999999997 A 36.72 36.72 0 0 0 1175.1100000000001 403.94 L 1138.39 403.94" fill="#145c6d"/><rect x="0" y="440.66666666666663" width="73.44444444444444" height="73.44444444444444" fill="#23042C"/><rect x="0" y="440.67" width="36.72" height="36.72" fill="#09010c"/><path d="M 0 440.67 A 36.72 36.72 0 0 1 36.72 477.39 L 0 477.39" fill="#0e7c84"/><rect x="36.72" y="440.67" width="36.72" height="36.72" fill="#136271"/><path d="M 36.72 440.67 A 36.72 36.72 0 0 0 73.44 477.39 L 73.44 440.67" fill="#010002"/><rect x="0" y="477.39" width="36.72" height="36.72" fill="#0c868c"/><path d="M 0 514.11 A 36.72 36.72 0 0 1  36.72 477.39 L 0 514.11 A 36.72 36.72 0 0 0 36.72 477.39" fill="#0d838a"/><rect x="36.72" y="477.39" width="36.72" height="36.72" fill="#193f57"/><path d="M 36.72 477.39 A 36.72 36.72 0 0 1 73.44 514.11 L 36.72 514.11" fill="#1d2847"/><rect x="73.44444444444444" y="440.66666666666663" width="73.44444444444444" height="73.44444444444444" fill="#23042C"/><rect x="73.44" y="440.67" width="36.72" height="36.72" fill="#21042a"/><path d="M 73.44 440.67 A 36.72 36.72 0 0 1  110.16 477.39 L 73.44 440.67 A 36.72 36.72 0 0 0 110.16 477.39" fill="#18455c"/><rect x="110.17" y="440.67" width="36.72" height="36.72" fill="#1a3550"/><path d="M 110.17 440.67 A 36.72 36.72 0 0 0 146.89 477.39 L 146.89 440.67" fill="#200428"/><rect x="73.44" y="477.39" width="36.72" height="36.72" fill="#020002"/><path d="M 73.44 477.39 A 36.72 36.72 0 0 1  110.16 514.11 L 73.44 477.39 A 36.72 36.72 0 0 0 110.16 514.11" fill="#0d8188"/><rect x="110.17" y="477.39" width="36.72" height="36.72" fill="#116a77"/><path d="M 110.17 514.11 A 36.72 36.72 0 0 1  146.89 477.39 L 146.89 514.11" fill="#0f0212"/><rect x="146.89" y="440.67" width="73.44" height="73.44" fill="#10727d"/><path d="M 146.89 514.11 A 73.44 73.44 0 0 1  220.32999999999998 440.67 L 220.32999999999998 514.11" fill="#200428"/><rect x="220.33" y="440.67" width="73.44" height="73.44" fill="#1b304c"/><path d="M 220.33 440.67 A 73.44 73.44 0 0 1 293.77 514.11 L 220.33 514.11" fill="#14596a"/><rect x="293.78" y="440.67" width="73.44" height="73.44" fill="#1c2d4a"/><path d="M 293.78 514.11 A 73.44 73.44 0 0 0 367.21999999999997 440.67 L 293.78 440.67" fill="#220a30"/><rect x="367.22222222222223" y="440.66666666666663" width="73.44444444444444" height="73.44444444444444" fill="#23042C"/><rect x="367.22" y="440.67" width="36.72" height="36.72" fill="#0a010c"/><path d="M 367.22 477.39 A 36.72 36.72 0 0 1  403.94000000000005 440.67 L 367.22 477.39 A 36.72 36.72 0 0 0 403.94000000000005 440.67" fill="#0a010d"/><rect x="403.94" y="440.67" width="36.72" height="36.72" fill="#0e7e85"/><path d="M 403.94 477.39 A 36.72 36.72 0 0 1  440.65999999999997 440.67 L 403.94 477.39 A 36.72 36.72 0 0 0 440.65999999999997 440.67" fill="#155467"/><rect x="367.22" y="477.39" width="36.72" height="36.72" fill="#0c010f"/><path d="M 367.22 514.11 A 36.72 36.72 0 0 1  403.94000000000005 477.39 L 367.22 514.11 A 36.72 36.72 0 0 0 403.94000000000005 477.39" fill="#17475e"/><rect x="403.94" y="477.39" width="36.72" height="36.72" fill="#116a77"/><path d="M 403.94 514.11 A 36.72 36.72 0 0 1  440.65999999999997 477.39 L 440.65999999999997 514.11" fill="#060108"/><rect x="440.67" y="440.67" width="73.44" height="73.44" fill="#1c2a48"/><path d="M 440.67 440.67 A 73.44 73.44 0 0 1  514.11 514.11 L 440.67 440.67 A 73.44 73.44 0 0 0 514.11 514.11" fill="#155668"/><rect x="514.11" y="440.67" width="73.44" height="73.44" fill="#1b0322"/><path d="M 514.11 514.11 A 73.44 73.44 0 0 1  587.55 440.67 L 514.11 514.11 A 73.44 73.44 0 0 0 587.55 440.67" fill="#140219"/><rect x="587.5555555555555" y="440.66666666666663" width="73.44444444444444" height="73.44444444444444" fill="#23042C"/><rect x="587.56" y="440.67" width="36.72" height="36.72" fill="#193e56"/><path d="M 587.56 440.67 A 36.72 36.72 0 0 0 624.28 477.39 L 624.28 440.67" fill="#145c6d"/><rect x="624.28" y="440.67" width="36.72" height="36.72" fill="#23042c"/><path d="M 624.28 440.67 A 36.72 36.72 0 0 0 661 477.39 L 661 440.67" fill="#070109"/><rect x="587.56" y="477.39" width="36.72" height="36.72" fill="#020003"/><path d="M 587.56 477.39 A 36.72 36.72 0 0 0 624.28 514.11 L 624.28 477.39" fill="#220a30"/><rect x="624.28" y="477.39" width="36.72" height="36.72" fill="#164f63"/><path d="M 624.28 514.11 A 36.72 36.72 0 0 1  661 477.39 L 661 514.11" fill="#010001"/><rect x="661" y="440.67" width="73.44" height="73.44" fill="#135e6e"/><path d="M 661 440.67 A 73.44 73.44 0 0 1 734.44 514.11 L 661 514.11" fill="#135d6e"/><rect x="734.44" y="440.67" width="73.44" height="73.44" fill="#1a0320"/><path d="M 734.44 514.11 A 73.44 73.44 0 0 0 807.8800000000001 440.67 L 734.44 440.67" fill="#1b0322"/><rect x="807.89" y="440.67" width="73.44" height="73.44" fill="#1b314d"/><path d="M 807.89 514.11 A 73.44 73.44 0 0 1  881.3299999999999 440.67 L 881.3299999999999 514.11" fill="#19031f"/><rect x="881.33" y="440.67" width="73.44" height="73.44" fill="#1d2947"/><path d="M 881.33 514.11 A 73.44 73.44 0 0 1  954.77 440.67 L 881.33 514.11 A 73.44 73.44 0 0 0 954.77 440.67" fill="#0c878c"/><rect x="954.78" y="440.67" width="73.44" height="73.44" fill="#070109"/><path d="M 954.78 514.11 A 73.44 73.44 0 0 1  1028.22 440.67 L 1028.22 514.11" fill="#0f0212"/><rect x="1028.2222222222222" y="440.66666666666663" width="73.44444444444444" height="73.44444444444444" fill="#23042C"/><rect x="1028.22" y="440.67" width="36.72" height="36.72" fill="#0e7f86"/><path d="M 1028.22 440.67 A 36.72 36.72 0 0 1 1064.94 477.39 L 1028.22 477.39" fill="#0f7781"/><rect x="1064.94" y="440.67" width="36.72" height="36.72" fill="#136070"/><path d="M 1064.94 440.67 A 36.72 36.72 0 0 0 1101.66 477.39 L 1101.66 440.67" fill="#0d0110"/><rect x="1028.22" y="477.39" width="36.72" height="36.72" fill="#100214"/><path d="M 1028.22 477.39 A 36.72 36.72 0 0 1  1064.94 514.11 L 1028.22 477.39 A 36.72 36.72 0 0 0 1064.94 514.11" fill="#126372"/><rect x="1064.94" y="477.39" width="36.72" height="36.72" fill="#020002"/><path d="M 1064.94 514.11 A 36.72 36.72 0 0 1  1101.66 477.39 L 1064.94 514.11 A 36.72 36.72 0 0 0 1101.66 477.39" fill="#211136"/><rect x="1101.67" y="440.67" width="73.44" height="73.44" fill="#136271"/><path d="M 1101.67 440.67 A 73.44 73.44 0 0 0 1175.1100000000001 514.11 L 1175.1100000000001 440.67" fill="#18031e"/><rect x="0" y="514.11" width="73.44" height="73.44" fill="#23042c"/><path d="M 0 514.11 A 73.44 73.44 0 0 1  73.44 587.55 L 0 514.11 A 73.44 73.44 0 0 0 73.44 587.55" fill="#155467"/><rect x="73.44" y="514.11" width="73.44" height="73.44" fill="#1b344f"/><path d="M 73.44 587.55 A 73.44 73.44 0 0 1  146.88 514.11 L 73.44 587.55 A 73.44 73.44 0 0 0 146.88 514.11" fill="#155769"/><rect x="146.88888888888889" y="514.1111111111111" width="73.44444444444444" height="73.44444444444444" fill="#23042C"/><rect x="146.89" y="514.11" width="36.72" height="36.72" fill="#0f7881"/><path d="M 146.89 514.11 A 36.72 36.72 0 0 1  183.60999999999999 550.83 L 146.89 514.11 A 36.72 36.72 0 0 0 183.60999999999999 550.83" fill="#145b6c"/><rect x="183.61" y="514.11" width="36.72" height="36.72" fill="#211135"/><path d="M 183.61 514.11 A 36.72 36.72 0 0 1 220.33 550.83 L 183.61 550.83" fill="#0a010d"/><rect x="146.89" y="550.83" width="36.72" height="36.72" fill="#0a010c"/><path d="M 146.89 587.5500000000001 A 36.72 36.72 0 0 1  183.60999999999999 550.83 L 183.60999999999999 587.5500000000001" fill="#164c61"/><rect x="183.61" y="550.83" width="36.72" height="36.72" fill="#0d848a"/><path d="M 183.61 550.83 A 36.72 36.72 0 0 0 220.33 587.5500000000001 L 220.33 550.83" fill="#220b31"/><rect x="220.33" y="514.11" width="73.44" height="73.44" fill="#164f63"/><path d="M 220.33 587.55 A 73.44 73.44 0 0 1  293.77 514.11 L 220.33 587.55 A 73.44 73.44 0 0 0 293.77 514.11" fill="#18445b"/><rect x="293.77777777777777" y="514.1111111111111" width="73.44444444444444" height="73.44444444444444" fill="#23042C"/><rect x="293.78" y="514.11" width="36.72" height="36.72" fill="#145869"/><path d="M 293.78 550.83 A 36.72 36.72 0 0 0 330.5 514.11 L 293.78 514.11" fill="#0b010d"/><rect x="330.5" y="514.11" width="36.72" height="36.72" fill="#21042a"/><path d="M 330.5 514.11 A 36.72 36.72 0 0 1  367.22 550.83 L 330.5 514.11 A 36.72 36.72 0 0 0 367.22 550.83" fill="#16021b"/><rect x="293.78" y="550.83" width="36.72" height="36.72" fill="#1f0427"/><path d="M 293.78 550.83 A 36.72 36.72 0 0 1  330.5 587.5500000000001 L 293.78 550.83 A 36.72 36.72 0 0 0 330.5 587.5500000000001" fill="#130218"/><rect x="330.5" y="550.83" width="36.72" height="36.72" fill="#030004"/><path d="M 330.5 550.83 A 36.72 36.72 0 0 1  367.22 587.5500000000001 L 330.5 550.83 A 36.72 36.72 0 0 0 367.22 587.5500000000001" fill="#184259"/><rect x="367.22222222222223" y="514.1111111111111" width="73.44444444444444" height="73.44444444444444" fill="#23042C"/><rect x="367.22" y="514.11" width="36.72" height="36.72" fill="#190320"/><path d="M 367.22 550.83 A 36.72 36.72 0 0 0 403.94000000000005 514.11 L 367.22 514.11" fill="#09010b"/><rect x="403.94" y="514.11" width="36.72" height="36.72" fill="#0a010c"/><path d="M 403.94 514.11 A 36.72 36.72 0 0 1 440.65999999999997 550.83 L 403.94 550.83" fill="#120217"/><rect x="367.22" y="550.83" width="36.72" height="36.72" fill="#1a3550"/><path d="M 367.22 587.5500000000001 A 36.72 36.72 0 0 0 403.94000000000005 550.83 L 367.22 550.83" fill="#0a010c"/><rect x="403.94" y="550.83" width="36.72" height="36.72" fill="#0e7e86"/><path d="M 403.94 587.5500000000001 A 36.72 36.72 0 0 1  440.65999999999997 550.83 L 403.94 587.5500000000001 A 36.72 36.72 0 0 0 440.65999999999997 550.83" fill="#22042b"/><rect x="440.66666666666663" y="514.1111111111111" width="73.44444444444444" height="73.44444444444444" fill="#23042C"/><rect x="440.67" y="514.11" width="36.72" height="36.72" fill="#22092f"/><path d="M 440.67 550.83 A 36.72 36.72 0 0 0 477.39 514.11 L 440.67 514.11" fill="#155266"/><rect x="477.39" y="514.11" width="36.72" height="36.72" fill="#0c010f"/><path d="M 477.39 514.11 A 36.72 36.72 0 0 1 514.11 550.83 L 477.39 550.83" fill="#193b55"/><rect x="440.67" y="550.83" width="36.72" height="36.72" fill="#0c878c"/><path d="M 440.67 587.5500000000001 A 36.72 36.72 0 0 0 477.39 550.83 L 440.67 550.83" fill="#0d8188"/><rect x="477.39" y="550.83" width="36.72" height="36.72" fill="#1a3751"/><path d="M 477.39 550.83 A 36.72 36.72 0 0 0 514.11 587.5500000000001 L 514.11 550.83" fill="#0c878c"/><rect x="514.1111111111111" y="514.1111111111111" width="73.44444444444444" height="73.44444444444444" fill="#23042C"/><rect x="514.11" y="514.11" width="36.72" height="36.72" fill="#0b010d"/><path d="M 514.11 514.11 A 36.72 36.72 0 0 1 550.83 550.83 L 514.11 550.83" fill="#08010b"/><rect x="550.83" y="514.11" width="36.72" height="36.72" fill="#100214"/><path d="M 550.83 514.11 A 36.72 36.72 0 0 0 587.5500000000001 550.83 L 587.5500000000001 514.11" fill="#1b334f"/><rect x="514.11" y="550.83" width="36.72" height="36.72" fill="#100214"/><path d="M 514.11 550.83 A 36.72 36.72 0 0 1 550.83 587.5500000000001 L 514.11 587.5500000000001" fill="#110216"/><rect x="550.83" y="550.83" width="36.72" height="36.72" fill="#18425a"/><path d="M 550.83 587.5500000000001 A 36.72 36.72 0 0 1  587.5500000000001 550.83 L 550.83 587.5500000000001 A 36.72 36.72 0 0 0 587.5500000000001 550.83" fill="#1c0323"/><rect x="587.56" y="514.11" width="73.44" height="73.44" fill="#060107"/><path d="M 587.56 587.55 A 73.44 73.44 0 0 1  661 514.11 L 661 587.55" fill="#130218"/><rect x="661" y="514.11" width="73.44" height="73.44" fill="#1b304c"/><path d="M 661 514.11 A 73.44 73.44 0 0 1 734.44 587.55 L 661 587.55" fill="#22042b"/><rect x="734.44" y="514.11" width="73.44" height="73.44" fill="#1c2a48"/><path d="M 734.44 514.11 A 73.44 73.44 0 0 1 807.8800000000001 587.55 L 734.44 587.55" fill="#155769"/><rect x="807.89" y="514.11" width="73.44" height="73.44" fill="#17031d"/><path d="M 807.89 514.11 A 73.44 73.44 0 0 1 881.3299999999999 587.55 L 807.89 587.55" fill="#19031f"/><rect x="881.33" y="514.11" width="73.44" height="73.44" fill="#08010a"/><path d="M 881.33 514.11 A 73.44 73.44 0 0 1  954.77 587.55 L 881.33 514.11 A 73.44 73.44 0 0 0 954.77 587.55" fill="#110216"/><rect x="954.7777777777777" y="514.1111111111111" width="73.44444444444444" height="73.44444444444444" fill="#23042C"/><rect x="954.78" y="514.11" width="36.72" height="36.72" fill="#1c2b49"/><path d="M 954.78 514.11 A 36.72 36.72 0 0 1  991.5 550.83 L 954.78 514.11 A 36.72 36.72 0 0 0 991.5 550.83" fill="#193d56"/><rect x="991.5" y="514.11" width="36.72" height="36.72" fill="#000000"/><path d="M 991.5 550.83 A 36.72 36.72 0 0 0 1028.22 514.11 L 991.5 514.11" fill="#030004"/><rect x="954.78" y="550.83" width="36.72" height="36.72" fill="#130218"/><path d="M 954.78 587.5500000000001 A 36.72 36.72 0 0 1  991.5 550.83 L 991.5 587.5500000000001" fill="#1b324e"/><rect x="991.5" y="550.83" width="36.72" height="36.72" fill="#0e0212"/><path d="M 991.5 587.5500000000001 A 36.72 36.72 0 0 1  1028.22 550.83 L 991.5 587.5500000000001 A 36.72 36.72 0 0 0 1028.22 550.83" fill="#0e0212"/><rect x="1028.2222222222222" y="514.1111111111111" width="73.44444444444444" height="73.44444444444444" fill="#23042C"/><rect x="1028.22" y="514.11" width="36.72" height="36.72" fill="#145869"/><path d="M 1028.22 550.83 A 36.72 36.72 0 0 0 1064.94 514.11 L 1028.22 514.11" fill="#140219"/><rect x="1064.94" y="514.11" width="36.72" height="36.72" fill="#19031f"/><path d="M 1064.94 514.11 A 36.72 36.72 0 0 1 1101.66 550.83 L 1064.94 550.83" fill="#155568"/><rect x="1028.22" y="550.83" width="36.72" height="36.72" fill="#126674"/><path d="M 1028.22 587.5500000000001 A 36.72 36.72 0 0 1  1064.94 550.83 L 1028.22 587.5500000000001 A 36.72 36.72 0 0 0 1064.94 550.83" fill="#1e2041"/><rect x="1064.94" y="550.83" width="36.72" height="36.72" fill="#0e7f86"/><path d="M 1064.94 587.5500000000001 A 36.72 36.72 0 0 1  1101.66 550.83 L 1064.94 587.5500000000001 A 36.72 36.72 0 0 0 1101.66 550.83" fill="#10727d"/><rect x="1101.6666666666667" y="514.1111111111111" width="73.44444444444444" height="73.44444444444444" fill="#23042C"/><rect x="1101.67" y="514.11" width="36.72" height="36.72" fill="#1c2a48"/><path d="M 1101.67 550.83 A 36.72 36.72 0 0 1  1138.39 514.11 L 1138.39 550.83" fill="#0e7b83"/><rect x="1138.39" y="514.11" width="36.72" height="36.72" fill="#060107"/><path d="M 1138.39 550.83 A 36.72 36.72 0 0 0 1175.1100000000001 514.11 L 1138.39 514.11" fill="#1f1a3c"/><rect x="1101.67" y="550.83" width="36.72" height="36.72" fill="#070108"/><path d="M 1101.67 587.5500000000001 A 36.72 36.72 0 0 1  1138.39 550.83 L 1138.39 587.5500000000001" fill="#23052d"/><rect x="1138.39" y="550.83" width="36.72" height="36.72" fill="#0f7881"/><path d="M 1138.39 587.5500000000001 A 36.72 36.72 0 0 1  1175.1100000000001 550.83 L 1175.1100000000001 587.5500000000001" fill="#0e0212"/><rect x="0" y="587.56" width="73.44" height="73.44" fill="#10727d"/><path d="M 0 587.56 A 73.44 73.44 0 0 1 73.44 661 L 0 661" fill="#0f0213"/><rect x="73.44444444444444" y="587.5555555555555" width="73.44444444444444" height="73.44444444444444" fill="#23042C"/><rect x="73.44" y="587.56" width="36.72" height="36.72" fill="#1c2c49"/><path d="M 73.44 587.56 A 36.72 36.72 0 0 1 110.16 624.28 L 73.44 624.28" fill="#19031f"/><rect x="110.17" y="587.56" width="36.72" height="36.72" fill="#18425a"/><path d="M 110.17 587.56 A 36.72 36.72 0 0 1 146.89 624.28 L 110.17 624.28" fill="#20183a"/><rect x="73.44" y="624.28" width="36.72" height="36.72" fill="#110216"/><path d="M 73.44 661 A 36.72 36.72 0 0 0 110.16 624.28 L 73.44 624.28" fill="#200428"/><rect x="110.17" y="624.28" width="36.72" height="36.72" fill="#09010b"/><path d="M 110.17 624.28 A 36.72 36.72 0 0 1  146.89 661 L 110.17 624.28 A 36.72 36.72 0 0 0 146.89 661" fill="#184259"/><rect x="146.89" y="587.56" width="73.44" height="73.44" fill="#210d33"/><path d="M 146.89 587.56 A 73.44 73.44 0 0 1  220.32999999999998 661 L 146.89 587.56 A 73.44 73.44 0 0 0 220.32999999999998 661" fill="#1a0320"/><rect x="220.33" y="587.56" width="73.44" height="73.44" fill="#140219"/><path d="M 220.33 661 A 73.44 73.44 0 0 1  293.77 587.56 L 220.33 661 A 73.44 73.44 0 0 0 293.77 587.56" fill="#110216"/><rect x="293.78" y="587.56" width="73.44" height="73.44" fill="#136271"/><path d="M 293.78 661 A 73.44 73.44 0 0 1  367.21999999999997 587.56 L 293.78 661 A 73.44 73.44 0 0 0 367.21999999999997 587.56" fill="#23062d"/><rect x="367.22222222222223" y="587.5555555555555" width="73.44444444444444" height="73.44444444444444" fill="#23042C"/><rect x="367.22" y="587.56" width="36.72" height="36.72" fill="#1a0321"/><path d="M 367.22 587.56 A 36.72 36.72 0 0 1  403.94000000000005 624.28 L 367.22 587.56 A 36.72 36.72 0 0 0 403.94000000000005 624.28" fill="#010002"/><rect x="403.94" y="587.56" width="36.72" height="36.72" fill="#116a77"/><path d="M 403.94 624.28 A 36.72 36.72 0 0 1  440.65999999999997 587.56 L 440.65999999999997 624.28" fill="#1e2242"/><rect x="367.22" y="624.28" width="36.72" height="36.72" fill="#020003"/><path d="M 367.22 624.28 A 36.72 36.72 0 0 1 403.94000000000005 661 L 367.22 661" fill="#16031c"/><rect x="403.94" y="624.28" width="36.72" height="36.72" fill="#126372"/><path d="M 403.94 624.28 A 36.72 36.72 0 0 1 440.65999999999997 661 L 403.94 661" fill="#1d0325"/><rect x="440.67" y="587.56" width="73.44" height="73.44" fill="#0d8188"/><path d="M 440.67 587.56 A 73.44 73.44 0 0 0 514.11 661 L 514.11 587.56" fill="#0c868b"/><rect x="514.1111111111111" y="587.5555555555555" width="73.44444444444444" height="73.44444444444444" fill="#23042C"/><rect x="514.11" y="587.56" width="36.72" height="36.72" fill="#23052d"/><path d="M 514.11 587.56 A 36.72 36.72 0 0 1 550.83 624.28 L 514.11 624.28" fill="#164d62"/><rect x="550.83" y="587.56" width="36.72" height="36.72" fill="#1a0321"/><path d="M 550.83 624.28 A 36.72 36.72 0 0 1  587.5500000000001 587.56 L 550.83 624.28 A 36.72 36.72 0 0 0 587.5500000000001 587.56" fill="#0e7c84"/><rect x="514.11" y="624.28" width="36.72" height="36.72" fill="#09010b"/><path d="M 514.11 624.28 A 36.72 36.72 0 0 1  550.83 661 L 514.11 624.28 A 36.72 36.72 0 0 0 550.83 661" fill="#0a010c"/><rect x="550.83" y="624.28" width="36.72" height="36.72" fill="#164e62"/><path d="M 550.83 661 A 36.72 36.72 0 0 1  587.5500000000001 624.28 L 550.83 661 A 36.72 36.72 0 0 0 587.5500000000001 624.28" fill="#110215"/><rect x="587.56" y="587.56" width="73.44" height="73.44" fill="#23042c"/><path d="M 587.56 587.56 A 73.44 73.44 0 0 1 661 661 L 587.56 661" fill="#126674"/><rect x="661" y="587.5555555555555" width="73.44444444444444" height="73.44444444444444" fill="#23042C"/><rect x="661" y="587.56" width="36.72" height="36.72" fill="#0f0213"/><path d="M 661 587.56 A 36.72 36.72 0 0 1 697.72 624.28 L 661 624.28" fill="#020003"/><rect x="697.72" y="587.56" width="36.72" height="36.72" fill="#10737d"/><path d="M 697.72 624.28 A 36.72 36.72 0 0 1  734.44 587.56 L 697.72 624.28 A 36.72 36.72 0 0 0 734.44 587.56" fill="#08010a"/><rect x="661" y="624.28" width="36.72" height="36.72" fill="#193f57"/><path d="M 661 661 A 36.72 36.72 0 0 0 697.72 624.28 L 661 624.28" fill="#193c55"/><rect x="697.72" y="624.28" width="36.72" height="36.72" fill="#070108"/><path d="M 697.72 661 A 36.72 36.72 0 0 1  734.44 624.28 L 734.44 661" fill="#1c2c4a"/><rect x="734.44" y="587.56" width="73.44" height="73.44" fill="#0c878d"/><path d="M 734.44 661 A 73.44 73.44 0 0 1  807.8800000000001 587.56 L 734.44 661 A 73.44 73.44 0 0 0 807.8800000000001 587.56" fill="#210f34"/><rect x="807.8888888888889" y="587.5555555555555" width="73.44444444444444" height="73.44444444444444" fill="#23042C"/><rect x="807.89" y="587.56" width="36.72" height="36.72" fill="#200428"/><path d="M 807.89 624.28 A 36.72 36.72 0 0 0 844.61 587.56 L 807.89 587.56" fill="#1f1a3c"/><rect x="844.61" y="587.56" width="36.72" height="36.72" fill="#1d0325"/><path d="M 844.61 587.56 A 36.72 36.72 0 0 1 881.33 624.28 L 844.61 624.28" fill="#201539"/><rect x="807.89" y="624.28" width="36.72" height="36.72" fill="#0e7d85"/><path d="M 807.89 624.28 A 36.72 36.72 0 0 0 844.61 661 L 844.61 624.28" fill="#18031e"/><rect x="844.61" y="624.28" width="36.72" height="36.72" fill="#120217"/><path d="M 844.61 624.28 A 36.72 36.72 0 0 0 881.33 661 L 881.33 624.28" fill="#1c0324"/><rect x="881.33" y="587.56" width="73.44" height="73.44" fill="#116b77"/><path d="M 881.33 587.56 A 73.44 73.44 0 0 1 954.77 661 L 881.33 661" fill="#09010b"/><rect x="954.7777777777777" y="587.5555555555555" width="73.44444444444444" height="73.44444444444444" fill="#23042C"/><rect x="954.78" y="587.56" width="36.72" height="36.72" fill="#110215"/><path d="M 954.78 587.56 A 36.72 36.72 0 0 1  991.5 624.28 L 954.78 587.56 A 36.72 36.72 0 0 0 991.5 624.28" fill="#19031f"/><rect x="991.5" y="587.56" width="36.72" height="36.72" fill="#174b60"/><path d="M 991.5 587.56 A 36.72 36.72 0 0 1 1028.22 624.28 L 991.5 624.28" fill="#100214"/><rect x="954.78" y="624.28" width="36.72" height="36.72" fill="#16021b"/><path d="M 954.78 661 A 36.72 36.72 0 0 1  991.5 624.28 L 991.5 661" fill="#020002"/><rect x="991.5" y="624.28" width="36.72" height="36.72" fill="#1b0322"/><path d="M 991.5 661 A 36.72 36.72 0 0 1  1028.22 624.28 L 1028.22 661" fill="#110215"/><rect x="1028.22" y="587.56" width="73.44" height="73.44" fill="#0a010d"/><path d="M 1028.22 661 A 73.44 73.44 0 0 0 1101.66 587.56 L 1028.22 587.56" fill="#106f7b"/><rect x="1101.67" y="587.56" width="73.44" height="73.44" fill="#16031c"/><path d="M 1101.67 661 A 73.44 73.44 0 0 1  1175.1100000000001 587.56 L 1101.67 661 A 73.44 73.44 0 0 0 1175.1100000000001 587.56" fill="#0c868b"/></g></svg>